<mxfile host="Electron" modified="2023-04-24T07:38:38.178Z" agent="Mozilla/5.0 (Windows NT 10.0; Win64; x64) AppleWebKit/537.36 (KHTML, like Gecko) draw.io/21.2.1 Chrome/112.0.5615.87 Electron/24.1.2 Safari/537.36" etag="evocQniAhcnistXcM4ym" version="21.2.1" type="device">
  <diagram name="第 1 页" id="w4MZmQ24aIaEvfFWPfyo">
    <mxGraphModel dx="1668" dy="965" grid="1" gridSize="10" guides="1" tooltips="1" connect="1" arrows="1" fold="1" page="1" pageScale="1" pageWidth="827" pageHeight="1169" background="#ffffff" math="0" shadow="0">
      <root>
        <mxCell id="0" />
        <mxCell id="1" parent="0" />
        <mxCell id="enUXVrz9RnB9VeoiW-Y0-1" value="" style="ellipse;html=1;shape=startState;fillColor=#000000;strokeColor=#ff0000;" parent="1" vertex="1">
          <mxGeometry x="384" y="40" width="30" height="30" as="geometry" />
        </mxCell>
        <mxCell id="enUXVrz9RnB9VeoiW-Y0-2" value="" style="edgeStyle=orthogonalEdgeStyle;html=1;verticalAlign=bottom;endArrow=open;endSize=8;strokeColor=#ff0000;rounded=0;" parent="1" source="enUXVrz9RnB9VeoiW-Y0-1" edge="1">
          <mxGeometry relative="1" as="geometry">
            <mxPoint x="400" y="100" as="targetPoint" />
            <Array as="points">
              <mxPoint x="400" y="70" />
              <mxPoint x="400" y="70" />
            </Array>
          </mxGeometry>
        </mxCell>
        <mxCell id="enUXVrz9RnB9VeoiW-Y0-3" value="身份验证" style="rounded=1;whiteSpace=wrap;html=1;arcSize=40;fontColor=#000000;fillColor=#ffffc0;strokeColor=#ff0000;" parent="1" vertex="1">
          <mxGeometry x="340" y="100" width="120" height="40" as="geometry" />
        </mxCell>
        <mxCell id="enUXVrz9RnB9VeoiW-Y0-4" value="" style="edgeStyle=orthogonalEdgeStyle;html=1;verticalAlign=bottom;endArrow=open;endSize=8;strokeColor=#ff0000;rounded=0;entryX=0.5;entryY=0;entryDx=0;entryDy=0;" parent="1" source="enUXVrz9RnB9VeoiW-Y0-3" target="enUXVrz9RnB9VeoiW-Y0-5" edge="1">
          <mxGeometry relative="1" as="geometry">
            <mxPoint x="399" y="200" as="targetPoint" />
          </mxGeometry>
        </mxCell>
        <mxCell id="enUXVrz9RnB9VeoiW-Y0-5" value="通过" style="rhombus;whiteSpace=wrap;html=1;fontColor=#000000;fillColor=#ffffc0;strokeColor=#ff0000;" parent="1" vertex="1">
          <mxGeometry x="360" y="170" width="80" height="40" as="geometry" />
        </mxCell>
        <mxCell id="enUXVrz9RnB9VeoiW-Y0-6" value="no" style="edgeStyle=orthogonalEdgeStyle;html=1;align=left;verticalAlign=bottom;endArrow=open;endSize=8;strokeColor=#ff0000;rounded=0;" parent="1" source="enUXVrz9RnB9VeoiW-Y0-5" edge="1">
          <mxGeometry x="-1" relative="1" as="geometry">
            <mxPoint x="600" y="450" as="targetPoint" />
          </mxGeometry>
        </mxCell>
        <mxCell id="enUXVrz9RnB9VeoiW-Y0-7" value="yes" style="edgeStyle=orthogonalEdgeStyle;html=1;align=left;verticalAlign=top;endArrow=open;endSize=8;strokeColor=#ff0000;rounded=0;" parent="1" source="enUXVrz9RnB9VeoiW-Y0-5" edge="1">
          <mxGeometry x="-1" relative="1" as="geometry">
            <mxPoint x="400" y="260" as="targetPoint" />
          </mxGeometry>
        </mxCell>
        <mxCell id="enUXVrz9RnB9VeoiW-Y0-8" value="" style="shape=line;html=1;strokeWidth=6;strokeColor=#ff0000;" parent="1" vertex="1">
          <mxGeometry x="300" y="260" width="200" height="10" as="geometry" />
        </mxCell>
        <mxCell id="enUXVrz9RnB9VeoiW-Y0-10" value="填写问卷" style="rounded=1;whiteSpace=wrap;html=1;arcSize=40;fontColor=#000000;fillColor=#ffffc0;strokeColor=#ff0000;" parent="1" vertex="1">
          <mxGeometry x="360" y="310" width="80" height="40" as="geometry" />
        </mxCell>
        <mxCell id="enUXVrz9RnB9VeoiW-Y0-14" value="修改问卷" style="rounded=1;whiteSpace=wrap;html=1;arcSize=40;fontColor=#000000;fillColor=#ffffc0;strokeColor=#ff0000;" parent="1" vertex="1">
          <mxGeometry x="250" y="310" width="80" height="40" as="geometry" />
        </mxCell>
        <mxCell id="enUXVrz9RnB9VeoiW-Y0-16" value="撤回问卷" style="rounded=1;whiteSpace=wrap;html=1;arcSize=40;fontColor=#000000;fillColor=#ffffc0;strokeColor=#ff0000;" parent="1" vertex="1">
          <mxGeometry x="470" y="310" width="80" height="40" as="geometry" />
        </mxCell>
        <mxCell id="enUXVrz9RnB9VeoiW-Y0-18" value="提交问卷" style="rounded=1;whiteSpace=wrap;html=1;arcSize=40;fontColor=#000000;fillColor=#ffffc0;strokeColor=#ff0000;" parent="1" vertex="1">
          <mxGeometry x="304" y="400" width="80" height="40" as="geometry" />
        </mxCell>
        <mxCell id="enUXVrz9RnB9VeoiW-Y0-19" value="" style="shape=line;html=1;strokeWidth=6;strokeColor=#ff0000;" parent="1" vertex="1">
          <mxGeometry x="300" y="460" width="200" height="10" as="geometry" />
        </mxCell>
        <mxCell id="enUXVrz9RnB9VeoiW-Y0-21" value="确认" style="text;html=1;align=center;verticalAlign=middle;resizable=0;points=[];autosize=1;strokeColor=none;fillColor=none;" parent="1" vertex="1">
          <mxGeometry x="390" y="478" width="50" height="30" as="geometry" />
        </mxCell>
        <mxCell id="enUXVrz9RnB9VeoiW-Y0-23" value="" style="ellipse;html=1;shape=endState;fillColor=#000000;strokeColor=#ff0000;" parent="1" vertex="1">
          <mxGeometry x="580" y="450" width="30" height="30" as="geometry" />
        </mxCell>
        <mxCell id="enUXVrz9RnB9VeoiW-Y0-26" value="" style="endArrow=open;html=1;rounded=0;exitX=0.5;exitY=1;exitDx=0;exitDy=0;entryX=0.5;entryY=0;entryDx=0;entryDy=0;strokeColor=#FF0000;endFill=0;" parent="1" source="enUXVrz9RnB9VeoiW-Y0-14" target="enUXVrz9RnB9VeoiW-Y0-18" edge="1">
          <mxGeometry width="50" height="50" relative="1" as="geometry">
            <mxPoint x="370" y="400" as="sourcePoint" />
            <mxPoint x="420" y="350" as="targetPoint" />
          </mxGeometry>
        </mxCell>
        <mxCell id="enUXVrz9RnB9VeoiW-Y0-27" value="" style="endArrow=open;html=1;rounded=0;exitX=0.5;exitY=1;exitDx=0;exitDy=0;entryX=0.5;entryY=0;entryDx=0;entryDy=0;strokeColor=#FF0000;endFill=0;" parent="1" source="enUXVrz9RnB9VeoiW-Y0-10" target="enUXVrz9RnB9VeoiW-Y0-18" edge="1">
          <mxGeometry width="50" height="50" relative="1" as="geometry">
            <mxPoint x="300" y="360" as="sourcePoint" />
            <mxPoint x="354" y="410" as="targetPoint" />
          </mxGeometry>
        </mxCell>
        <mxCell id="enUXVrz9RnB9VeoiW-Y0-28" value="" style="endArrow=open;html=1;rounded=0;exitX=0.499;exitY=0.543;exitDx=0;exitDy=0;entryX=0.5;entryY=0;entryDx=0;entryDy=0;strokeColor=#FF0000;exitPerimeter=0;endFill=0;" parent="1" source="enUXVrz9RnB9VeoiW-Y0-8" target="enUXVrz9RnB9VeoiW-Y0-14" edge="1">
          <mxGeometry width="50" height="50" relative="1" as="geometry">
            <mxPoint x="310" y="370" as="sourcePoint" />
            <mxPoint x="364" y="420" as="targetPoint" />
          </mxGeometry>
        </mxCell>
        <mxCell id="enUXVrz9RnB9VeoiW-Y0-29" value="" style="endArrow=open;html=1;rounded=0;exitX=0.505;exitY=0.543;exitDx=0;exitDy=0;strokeColor=#FF0000;exitPerimeter=0;endFill=0;" parent="1" source="enUXVrz9RnB9VeoiW-Y0-8" edge="1">
          <mxGeometry width="50" height="50" relative="1" as="geometry">
            <mxPoint x="320" y="380" as="sourcePoint" />
            <mxPoint x="401" y="310" as="targetPoint" />
          </mxGeometry>
        </mxCell>
        <mxCell id="enUXVrz9RnB9VeoiW-Y0-30" value="" style="endArrow=open;html=1;rounded=0;exitX=0.505;exitY=0.543;exitDx=0;exitDy=0;entryX=0.5;entryY=0;entryDx=0;entryDy=0;strokeColor=#FF0000;exitPerimeter=0;endFill=0;" parent="1" source="enUXVrz9RnB9VeoiW-Y0-8" target="enUXVrz9RnB9VeoiW-Y0-16" edge="1">
          <mxGeometry width="50" height="50" relative="1" as="geometry">
            <mxPoint x="330" y="390" as="sourcePoint" />
            <mxPoint x="384" y="440" as="targetPoint" />
          </mxGeometry>
        </mxCell>
        <mxCell id="enUXVrz9RnB9VeoiW-Y0-31" value="" style="endArrow=open;html=1;rounded=0;exitX=0.5;exitY=1;exitDx=0;exitDy=0;entryX=0.25;entryY=0.5;entryDx=0;entryDy=0;strokeColor=#FF0000;entryPerimeter=0;endFill=0;" parent="1" source="enUXVrz9RnB9VeoiW-Y0-18" target="enUXVrz9RnB9VeoiW-Y0-19" edge="1">
          <mxGeometry width="50" height="50" relative="1" as="geometry">
            <mxPoint x="340" y="400" as="sourcePoint" />
            <mxPoint x="394" y="450" as="targetPoint" />
          </mxGeometry>
        </mxCell>
        <mxCell id="enUXVrz9RnB9VeoiW-Y0-32" value="" style="endArrow=open;html=1;rounded=0;exitX=0.5;exitY=1;exitDx=0;exitDy=0;entryX=0.75;entryY=0.5;entryDx=0;entryDy=0;strokeColor=#FF0000;entryPerimeter=0;endFill=0;" parent="1" source="enUXVrz9RnB9VeoiW-Y0-16" target="enUXVrz9RnB9VeoiW-Y0-19" edge="1">
          <mxGeometry width="50" height="50" relative="1" as="geometry">
            <mxPoint x="350" y="410" as="sourcePoint" />
            <mxPoint x="404" y="460" as="targetPoint" />
          </mxGeometry>
        </mxCell>
        <mxCell id="enUXVrz9RnB9VeoiW-Y0-36" value="" style="endArrow=classic;html=1;rounded=0;exitX=1;exitY=0.5;exitDx=0;exitDy=0;entryX=0;entryY=0.5;entryDx=0;entryDy=0;strokeColor=#FF0000;exitPerimeter=0;" parent="1" source="enUXVrz9RnB9VeoiW-Y0-19" target="enUXVrz9RnB9VeoiW-Y0-23" edge="1">
          <mxGeometry width="50" height="50" relative="1" as="geometry">
            <mxPoint x="370" y="430" as="sourcePoint" />
            <mxPoint x="424" y="480" as="targetPoint" />
          </mxGeometry>
        </mxCell>
      </root>
    </mxGraphModel>
  </diagram>
</mxfile>
